<mxfile host="app.diagrams.net" agent="Mozilla/5.0 (X11; Linux x86_64) AppleWebKit/537.36 (KHTML, like Gecko) Chrome/131.0.0.0 Safari/537.36" version="25.0.3">
  <diagram name="Casos de Uso" id="0">
    <mxGraphModel dx="1434" dy="760" grid="1" gridSize="10" guides="1" tooltips="1" connect="1" arrows="1" fold="1" page="1" pageScale="1" pageWidth="827" pageHeight="1169" math="0" shadow="0">
      <root>
        <mxCell id="0" />
        <mxCell id="1" parent="0" />
        <mxCell id="user" value="Usuário" style="shape=actor;whiteSpace=wrap;html=1;" parent="1" vertex="1">
          <mxGeometry x="20" y="240" width="40" height="80" as="geometry" />
        </mxCell>
        <mxCell id="system" value="Sistema" style="rounded=1;whiteSpace=wrap;html=1;strokeWidth=2;arcSize=17;align=center;verticalAlign=top;" parent="1" vertex="1">
          <mxGeometry x="140" y="10" width="400" height="500" as="geometry" />
        </mxCell>
        <mxCell id="cadastro_usuario" value="Cadastro de Usuário" style="ellipse;whiteSpace=wrap;html=1;" parent="system" vertex="1">
          <mxGeometry x="60" y="40" width="160" height="60" as="geometry" />
        </mxCell>
        <mxCell id="login_logout" value="Login/Logout" style="ellipse;whiteSpace=wrap;html=1;" parent="system" vertex="1">
          <mxGeometry x="60" y="120" width="160" height="60" as="geometry" />
        </mxCell>
        <mxCell id="criar_grupo" value="Criação de Grupo" style="ellipse;whiteSpace=wrap;html=1;" parent="system" vertex="1">
          <mxGeometry x="60" y="200" width="160" height="60" as="geometry" />
        </mxCell>
        <mxCell id="registrar_despesa" value="Registro de Despesa" style="ellipse;whiteSpace=wrap;html=1;" parent="system" vertex="1">
          <mxGeometry x="60" y="280" width="160" height="60" as="geometry" />
        </mxCell>
        <mxCell id="gerenciar_saldos" value="Gerenciamento de Saldos" style="ellipse;whiteSpace=wrap;html=1;" parent="system" vertex="1">
          <mxGeometry x="60" y="360" width="160" height="60" as="geometry" />
        </mxCell>
        <mxCell id="visualizar_historico" value="Histórico de Transações" style="ellipse;whiteSpace=wrap;html=1;" parent="system" vertex="1">
          <mxGeometry x="60" y="440" width="160" height="60" as="geometry" />
        </mxCell>
        <mxCell id="pagamento_divida" value="Registro de Pagamento" style="ellipse;whiteSpace=wrap;html=1;" parent="system" vertex="1">
          <mxGeometry x="220" y="80" width="160" height="60" as="geometry" />
        </mxCell>
        <mxCell id="edge1" style="edgeStyle=orthogonalEdgeStyle;rounded=0;orthogonalLoop=1;" parent="1" source="user" target="cadastro_usuario" edge="1">
          <mxGeometry relative="1" as="geometry">
            <Array as="points">
              <mxPoint x="180" y="280" />
              <mxPoint x="180" y="90" />
            </Array>
          </mxGeometry>
        </mxCell>
        <mxCell id="edge2" style="edgeStyle=orthogonalEdgeStyle;rounded=0;orthogonalLoop=1;" parent="1" source="user" target="login_logout" edge="1">
          <mxGeometry relative="1" as="geometry">
            <Array as="points">
              <mxPoint x="180" y="280" />
              <mxPoint x="180" y="170" />
            </Array>
          </mxGeometry>
        </mxCell>
        <mxCell id="edge3" style="edgeStyle=orthogonalEdgeStyle;rounded=0;orthogonalLoop=1;" parent="1" source="user" target="criar_grupo" edge="1">
          <mxGeometry relative="1" as="geometry">
            <Array as="points">
              <mxPoint x="180" y="280" />
              <mxPoint x="180" y="240" />
            </Array>
          </mxGeometry>
        </mxCell>
        <mxCell id="edge4" style="edgeStyle=orthogonalEdgeStyle;rounded=0;orthogonalLoop=1;" parent="1" source="user" target="registrar_despesa" edge="1">
          <mxGeometry relative="1" as="geometry" />
        </mxCell>
        <mxCell id="edge5" style="edgeStyle=orthogonalEdgeStyle;rounded=0;orthogonalLoop=1;" parent="1" source="user" target="gerenciar_saldos" edge="1">
          <mxGeometry relative="1" as="geometry">
            <Array as="points">
              <mxPoint x="180" y="280" />
              <mxPoint x="180" y="400" />
            </Array>
          </mxGeometry>
        </mxCell>
        <mxCell id="edge6" style="edgeStyle=orthogonalEdgeStyle;rounded=0;orthogonalLoop=1;" parent="1" source="user" target="visualizar_historico" edge="1">
          <mxGeometry relative="1" as="geometry">
            <Array as="points">
              <mxPoint x="180" y="280" />
              <mxPoint x="180" y="480" />
            </Array>
          </mxGeometry>
        </mxCell>
        <mxCell id="edge7" style="edgeStyle=orthogonalEdgeStyle;rounded=0;orthogonalLoop=1;" parent="1" source="user" target="pagamento_divida" edge="1">
          <mxGeometry relative="1" as="geometry">
            <Array as="points">
              <mxPoint x="40" y="120" />
            </Array>
          </mxGeometry>
        </mxCell>
      </root>
    </mxGraphModel>
  </diagram>
</mxfile>
